<svg width="38" height="38" viewBox="0 0 38 38" fill="none" xmlns="http://www.w3.org/2000/svg">
<g id="Icons" clip-path="url(#clip0_7_687)">
<path id="Vector" d="M38 19C38 8.50666 29.4933 0 19 0C8.50666 0 0 8.50651 0 19C0 28.4834 6.94806 36.3439 16.0313 37.7692L16.0313 24.4922H11.207L11.207 19H16.0313V14.8141C16.0313 10.0522 18.8679 7.42187 23.2078 7.42187C25.2866 7.42187 27.4609 7.79297 27.4609 7.79297L27.4609 12.4687H25.0652C22.7047 12.4687 21.9688 13.9334 21.9688 15.436V19L27.2383 19L26.3959 24.4922H21.9688L21.9688 37.7692C31.0519 36.3439 38 28.4835 38 19Z" fill="green"/>
</g>
<defs>
<clipPath id="clip0_7_687">
<rect width="38" height="38" fill="white"/>
</clipPath>
</defs>
</svg>
