<?xml version="1.0" encoding="UTF-8"?>
<svg id="Camada_2" data-name="Camada 2" xmlns="http://www.w3.org/2000/svg" viewBox="0 0 507.72 358.04">
  <defs>
    <style>
      .cls-1 {
        fill: #111827;
      }
    </style>
  </defs>
  <g id="Camada_1-2" data-name="Camada 1">
    <g>
      <path class="cls-1" d="m254.24,232.53c.04-.29.11-.57.16-.86-14.15,2.41-28.63,3.64-43.41,3.64-22.53,0-45.75-2.8-69.5-8.4-6.39-1.51-10.35-7.91-8.85-14.3,1.51-6.39,7.9-10.34,14.3-8.85,43.76,10.32,85.34,10.35,123.57.09.87-.23,1.74-.34,2.61-.38,6.37-3.95,13.62-6.03,21.21-6.03,12.73,0,24.46,5.8,32.18,15.91l42.06,55.08,36.25-47.48-.04-60.38c-.76-12.64-5.44-23.55-14.09-33.12-5.61-6.2-10.95-12.63-16.85-19.46,9.84-2.67,18.87-4.97,27.8-7.57,6.76-1.97,11.25-8.64,10.41-14.82-.99-7.27-6.7-12.34-14.2-12.47-4.78-.08-9.6.35-14.34-.09-10.14-.93-18.94,1.31-25.77,9.32-.15.18-.64.06-1.25.1-1.25-2.77-2.39-5.72-3.86-8.49-9.13-17.3-18.16-34.66-27.61-51.8-3.94-7.15-9.87-12.5-18.19-14.39-6.01-1.37-12.02-3.16-18.11-3.65-19.57-1.57-39.16-3.29-58.77-3.73-37.87-.83-75.76-.98-113.41,4.62-13.92,2.07-25.12,7.69-31.92,20.65-6.14,11.71-12.73,23.2-18.82,34.93-3.77,7.26-6.99,14.8-10.87,23.11-7.2-10.51-17.22-11.37-27.85-10.65-3.7.25-7.44.03-11.16.04-8.9.02-14.69,4.59-15.78,12.44-.96,6.88,3.78,12.97,11.84,15.21,8.47,2.35,16.94,4.69,26.33,7.29-6.07,6.95-11.6,13.37-17.22,19.72-9.15,10.34-13.98,22.2-13.94,36.17.14,41.8.04,83.6.05,125.4,0,9.83,3.87,13.71,13.82,13.75,13.64.05,27.28.06,40.92,0,9.66-.05,13.45-3.89,13.5-13.52.03-6.84,0-13.69,0-20.52h191.79l-5.04-6.6c-6.56-8.59-9.38-19.22-7.94-29.94Zm103.17-74.33c1.93,12.47-3.24,24.22-14.81,30.18-6.85,3.54-22.41,7-22.57,6.68-4.47-.37-9.03-.31-13.4-1.2-16.2-3.32-22.64-13.85-18.84-30.24,5.08-21.87,25.31-35.01,46.29-30.07,11.89,2.8,21.51,12.97,23.32,24.64ZM70.46,97.66c11.17-21.63,22.39-43.23,33.5-64.89,2.33-4.54,6.04-6.96,10.85-7.39,21.11-1.9,42.21-4.63,63.37-5.14,27.95-.66,55.95.11,83.91,1.01,11.78.38,23.51,2.57,35.23,4.13,4.29.57,8.01,2.26,10.26,6.52,11.68,22.11,23.49,44.15,36.03,67.67-92.28-9.63-182.77-9.68-273.43-.16.12-.81.07-1.35.28-1.75Zm38.48,96.56c-2.13.26-4.27.35-6.41.52-.12.47-17.17-1.68-24.85-4.95-13.29-5.67-19.91-18.98-17.38-31.79,2.81-14.19,14.69-24.6,29.14-25.53,20.81-1.35,40.14,15.6,41.46,36.35.91,14.24-7.18,23.61-21.97,25.4Z"/>
      <path class="cls-1" d="m368.56,358.04h0c-10.01,0-19.32-4.69-25.57-12.87l-69.65-91.22c-8.86-11.6-6.63-28.19,4.97-37.04,11.6-8.86,28.18-6.64,37.04,4.97l53.21,69.69,91.72-120.13c8.86-11.6,25.45-13.82,37.04-4.97,11.6,8.86,13.82,25.44,4.97,37.04l-108.16,141.66c-6.25,8.18-15.57,12.87-25.57,12.87Z"/>
    </g>
  </g>
</svg>