<svg width="36" height="36" viewBox="0 0 36 36" fill="none" xmlns="http://www.w3.org/2000/svg">
<g id="Icones">
<path id="Vector" d="M16.1212 6.74859H21.7575L27.9386 0.555154C28.1133 0.379245 28.3211 0.239621 28.55 0.144339C28.779 0.0490562 29.0245 0 29.2726 0C29.5206 0 29.7661 0.0490562 29.9951 0.144339C30.224 0.239621 30.4318 0.379245 30.6065 0.555154L35.4537 5.41606C35.8036 5.7677 36 6.24338 36 6.73921C36 7.23503 35.8036 7.71071 35.4537 8.06235L31.1513 12.379H16.1212V16.1326C16.1212 16.6303 15.9233 17.1077 15.571 17.4597C15.2186 17.8116 14.7408 18.0094 14.2425 18.0094C13.7442 18.0094 13.2663 17.8116 12.914 17.4597C12.5617 17.1077 12.3637 16.6303 12.3637 16.1326V10.5022C12.3637 9.50667 12.7596 8.55193 13.4643 7.84799C14.1689 7.14406 15.1247 6.74859 16.1212 6.74859ZM4.84869 16.1326V23.6398L0.546329 27.9377C0.196409 28.2893 0 28.765 0 29.2608C0 29.7566 0.196409 30.2323 0.546329 30.5839L5.39353 35.4448C5.56818 35.6208 5.77597 35.7604 6.00492 35.8557C6.23386 35.9509 6.47943 36 6.72745 36C6.97546 36 7.22103 35.9509 7.44997 35.8557C7.67892 35.7604 7.88671 35.6208 8.06136 35.4448L16.1212 27.3934H23.6363C24.1346 27.3934 24.6124 27.1956 24.9648 26.8437C25.3171 26.4917 25.515 26.0143 25.515 25.5166V23.6398H27.3938C27.8921 23.6398 28.3699 23.442 28.7223 23.0901C29.0746 22.7381 29.2726 22.2607 29.2726 21.763V19.8862H31.1513C31.6496 19.8862 32.1275 19.6884 32.4798 19.3365C32.8321 18.9845 33.0301 18.5071 33.0301 18.0094V16.1326H19.8788V18.0094C19.8788 19.0049 19.4829 19.9596 18.7782 20.6636C18.0735 21.3675 17.1178 21.763 16.1212 21.763H12.3637C11.3672 21.763 10.4114 21.3675 9.70676 20.6636C9.00208 19.9596 8.6062 19.0049 8.6062 18.0094V12.379L4.84869 16.1326Z" fill="#E9E9E9"/>
</g>
</svg>
