<?xml version="1.0" encoding="UTF-8"?>
<svg id="Camada_2" data-name="Camada 2" xmlns="http://www.w3.org/2000/svg" viewBox="0 0 696.85 314.69">
  <defs>
    <style>
      .cls-1 {
        fill: #0290ce;
      }

      .cls-2 {
        fill: #15803d;
      }

      .cls-3 {
        fill: none;
      }

      .cls-4 {
        fill: #111827;
      }
    </style>
  </defs>
  <g id="Camada_1-2" data-name="Camada 1">
    <g>
      <path class="cls-2" d="m351.07,62.14c-29.98,0-51.76,22.58-51.76,51.36s21.78,51.36,51.76,51.36,51.56-22.58,51.56-51.36-21.78-51.36-51.56-51.36Zm0,71.94c-10.79,0-19.58-7.59-19.58-20.58s8.79-20.58,19.58-20.58,19.39,7.59,19.39,20.58-8.79,20.58-19.39,20.58Z"/>
      <g>
        <path class="cls-2" d="m545.1,124.99c.02-.16.06-.31.08-.46-7.6,1.3-15.39,1.96-23.33,1.96-12.11,0-24.59-1.51-37.36-4.52-3.44-.81-5.56-4.25-4.75-7.69.81-3.44,4.25-5.56,7.69-4.75,23.52,5.55,45.87,5.56,66.42.05.47-.12.94-.18,1.4-.2,3.42-2.12,7.32-3.24,11.4-3.24,6.84,0,13.15,3.12,17.3,8.55l22.61,29.61,19.48-25.52-.02-32.45c-.41-6.79-2.92-12.66-7.58-17.8-3.01-3.33-5.89-6.79-9.06-10.46,5.29-1.43,10.14-2.67,14.94-4.07,3.63-1.06,6.05-4.64,5.59-7.96-.53-3.91-3.6-6.63-7.63-6.7-2.57-.05-5.16.19-7.71-.05-5.45-.5-10.18.71-13.85,5.01-.08.09-.34.03-.67.05-.67-1.49-1.29-3.07-2.07-4.57-4.91-9.3-9.76-18.63-14.84-27.84-2.12-3.84-5.31-6.72-9.78-7.74-3.23-.73-6.46-1.7-9.74-1.96-10.52-.84-21.05-1.77-31.59-2-20.36-.45-40.72-.53-60.96,2.48-7.48,1.11-13.51,4.13-17.16,11.1-3.3,6.3-6.84,12.47-10.12,18.78-2.03,3.9-3.76,7.95-5.84,12.42-3.87-5.65-9.25-6.11-14.97-5.72-1.99.13-4,.02-6,.02-4.78.01-7.89,2.47-8.48,6.69-.52,3.7,2.03,6.97,6.36,8.18,4.55,1.26,9.1,2.52,14.15,3.92-3.26,3.74-6.24,7.19-9.26,10.6-4.92,5.56-7.52,11.93-7.49,19.44.07,22.47.02,44.94.03,67.41,0,5.28,2.08,7.37,7.43,7.39,7.33.03,14.66.03,22,0,5.19-.02,7.23-2.09,7.26-7.27.02-3.68,0-7.36,0-11.03h103.09l-2.71-3.55c-3.53-4.62-5.04-10.33-4.27-16.09Zm55.45-39.95c1.04,6.7-1.74,13.02-7.96,16.22-3.68,1.9-12.05,3.76-12.13,3.59-2.4-.2-4.85-.17-7.2-.65-8.71-1.78-12.17-7.44-10.12-16.25,2.73-11.76,13.6-18.82,24.88-16.16,6.39,1.51,11.56,6.97,12.53,13.24Zm-154.24-32.54c6-11.63,12.04-23.24,18.01-34.88,1.25-2.44,3.25-3.74,5.83-3.97,11.35-1.02,22.69-2.49,34.06-2.76,15.02-.36,30.08.06,45.1.54,6.33.2,12.64,1.38,18.94,2.22,2.31.31,4.31,1.21,5.52,3.5,6.28,11.88,12.63,23.73,19.37,36.37-49.6-5.18-98.24-5.2-146.97-.08.07-.44.04-.72.15-.94Zm20.69,51.91c-1.14.14-2.3.19-3.44.28-.06.26-9.23-.9-13.36-2.66-7.14-3.05-10.7-10.2-9.34-17.09,1.51-7.63,7.9-13.22,15.66-13.72,11.19-.72,21.58,8.39,22.29,19.54.49,7.66-3.86,12.69-11.81,13.65Z"/>
        <path class="cls-2" d="m606.55,192.45h0c-5.38,0-10.39-2.52-13.74-6.92l-37.44-49.03c-4.76-6.24-3.57-15.15,2.67-19.91,6.23-4.76,15.15-3.57,19.91,2.67l28.6,37.46,49.3-64.57c4.76-6.24,13.68-7.43,19.91-2.67,6.24,4.76,7.43,13.67,2.67,19.91l-58.14,76.15c-3.36,4.4-8.37,6.92-13.74,6.92Z"/>
      </g>
      <path class="cls-3" d="m179.86,200.78c-8.59,0-16.19,3.8-18.79,13.79h36.17c-2-10.39-9.19-13.79-17.39-13.79Z"/>
      <path class="cls-3" d="m649.69,200.78c-8.59,0-16.19,3.8-18.78,13.79h36.17c-2-10.39-9.19-13.79-17.39-13.79Z"/>
      <path class="cls-4" d="m179.66,173.4c-30.58,0-50.76,22.18-50.76,50.96s22.18,51.76,54.36,51.76c13.99,0,26.58-3.8,34.77-12.19,2-1.8,1.8-3.4,1-4.6l-9.19-12.79c-1-1.6-2-2-3.6-1.2-8.19,4.4-14.59,4.6-20.18,4.6-12.19,0-20.78-3.4-24.38-12.39h52.96c9.79,0,12.39-6.59,12.39-17.19,0-25.18-17.39-46.96-47.36-46.96Zm-18.59,41.17c2.6-9.99,10.19-13.79,18.79-13.79s15.39,3.4,17.39,13.79h-36.17Z"/>
      <path class="cls-4" d="m333.34,175.8h-24.78c-1.8,0-3.2,1.4-3.2,3.2l-.6,5.99c-5.8-7.39-14.39-11.59-27.58-11.59-27.38,0-45.36,20.18-45.36,48.96s17.99,48.96,45.36,48.96c12.59,0,21.58-4.4,27.38-11.59v7.79c0,15.39-12.59,20.18-23.98,20.18-7.99,0-16.39-2.4-24.98-6.99-2.6-1.4-4.6-.4-5.8,1.8l-6.99,13.59c-1,2-1,5,1.2,6.39,10.59,8.19,24.98,12.19,39.97,12.19,23.58,0,52.56-10.19,52.56-47.16v-88.53c0-1.8-1.4-3.2-3.2-3.2Zm-49.36,65.55c-11.19,0-19.38-7.19-19.38-18.98s8.19-18.99,19.38-18.99,19.18,7.19,19.18,18.79-7.99,19.18-19.18,19.18Z"/>
      <path class="cls-4" d="m398.09,173.4c-29.98,0-51.76,22.58-51.76,51.36s21.78,51.36,51.76,51.36,51.56-22.58,51.56-51.36-21.78-51.36-51.56-51.36Zm0,71.94c-10.79,0-19.58-7.59-19.58-20.58s8.79-20.58,19.58-20.58,19.39,7.59,19.39,20.58-8.79,20.58-19.39,20.58Z"/>
      <path class="cls-4" d="m528.39,238.75c-1.4-1.4-4-1.6-5.4-.2-5,4.8-9.79,6.8-15.19,6.8-13.79,0-21.18-10.39-21.18-21.18s7.39-19.98,20.58-19.98c5.79,0,10.59,2,15.59,6.59,1.4,1.6,4,1.4,5.4,0l15.39-14.79c1.2-1.2,1.6-3,.4-4.4-8.39-10.99-21.78-18.19-38.37-18.19-29.58,0-51.16,21.98-51.16,50.76s21.98,51.96,52.16,51.96c15.79,0,29.18-7.19,37.57-18.18,1.2-1.4.8-3.2-.4-4.4l-15.39-14.79Z"/>
      <path class="cls-4" d="m585.84,190.86l-11.5-15.06h-16.38c-1.8,0-3.2,1.4-3.2,3.2v91.53c0,1.8,1.4,3.2,3.2,3.2h27.58c1.8,0,3.2-1.4,3.2-3.2v-76.44c-1.04-.98-2.01-2.06-2.9-3.22Z"/>
      <path class="cls-4" d="m696.85,220.36c0-25.18-17.39-46.96-47.36-46.96-3.29,0-6.44.27-9.48.76l-12.75,16.69c-5.03,6.59-12.58,10.36-20.71,10.36h0c-.95,0-1.88-.06-2.81-.16-3.25,6.93-5.01,14.82-5.01,23.3,0,30.18,22.18,51.76,54.36,51.76,13.99,0,26.58-3.8,34.77-12.19,2-1.8,1.8-3.4,1-4.6l-9.19-12.79c-1-1.6-2-2-3.6-1.2-8.19,4.4-14.59,4.6-20.18,4.6-12.19,0-20.78-3.4-24.38-12.39h52.96c9.79,0,12.39-6.59,12.39-17.19Zm-65.95-5.8c2.6-9.99,10.19-13.79,18.78-13.79s15.39,3.4,17.39,13.79h-36.17Z"/>
      <path class="cls-4" d="m82.53,177.28v39.29l-30.51-57.33-12.46-23.41c-.8-1.4-2-2-3.6-2H3c-1.8,0-3,1.4-3,3.2v133.49c0,1.8,1.2,3.2,3,3.2h28.58c1.8,0,3.2-1.4,3.2-3.2v-79.14l42.77,80.34c.8,1.4,2,2,3.6,2h32.97c1.8,0,3.2-1.4,3.2-3.2v-92.1h-28.24c-2.3,0-4.5-.41-6.53-1.14Z"/>
      <path class="cls-2" d="m75.48,26.31c-.6-1.6-2.4-2.4-4-2.4h-30.18c-1.6,0-3.2.8-3.8,2.4L5.66,119.22h30.31c6.95,0,12.89,3.41,16.29,9.36l.21.38,8.33,15.66h19.47l5.2,16.79c.34,1.01.93,1.64,1.67,1.99.17.08.36.12.54.18.17.06.35.11.53.14.28.05.56.08.85.08h29.78c2.2,0,3.4-1.4,2.6-3.4L75.48,26.31Zm-33.37,87.53l14.39-45.76,14.19,45.76h-28.58Z"/>
      <path class="cls-2" d="m159.21,166.2c13.79,0,22.58-6.79,28.18-16.79l.8,10.99c.2,2.6,1.4,3.4,3.2,3.4h26.18c1.8,0,3.4-1.4,3.4-3.2v-91.53c0-1.8-1.6-3.2-3.4-3.2h-26.98c-1.8,0-3.2,1.4-3.2,3.2v48.16c0,12.19-5.6,18.19-14.99,18.19s-14.79-6-14.79-18.19v-48.16c0-1.8-1.4-3.2-3.2-3.2h-27.18c-1.8,0-3.2,1.4-3.2,3.2v56.55c0,25.38,14.99,40.57,35.17,40.57Z"/>
      <path class="cls-2" d="m244.75,91.66v41.57c0,24.38,16.99,31.77,33.57,31.77,7.19,0,18.39-1.4,18.39-6.59v-18.39c0-2-1.8-3-3.4-2.8-2.8.2-4.4,0-6.2,0-4.8,0-8.39-2.8-8.39-7.59v-37.97h14.59c1.8,0,3.2-1.4,3.2-3.2v-19.38c0-1.8-1.4-3.2-3.2-3.2h-14.59v-22.78c0-1.8-1.4-3.2-3.2-3.2h-27.58c-1.8,0-3.2,1.4-3.2,3.2v22.78h-12.19c-1.8,0-3,1.4-3,3.2v19.38c0,1.8,1.2,3.2,3,3.2h12.19Z"/>
      <path class="cls-1" d="m87.52,163.54c.05.02.11.02.16.04-.18-.06-.37-.1-.54-.18l.38.14Z"/>
    </g>
  </g>
</svg>