<svg width="36" height="36" viewBox="0 0 36 36" fill="none" xmlns="http://www.w3.org/2000/svg">
<g id="Icones">
<path id="Vector" d="M22.6667 0C21.9594 0 21.2811 0.303428 20.781 0.843532C20.281 1.38364 20 2.11618 20 2.88V8.64C20 9.40382 20.281 10.1364 20.781 10.6765C20.965 10.8751 21.1729 11.0417 21.3976 11.173C22.0324 11.5439 22.6667 12.116 22.6667 12.8511C22.6667 14.0036 24.0317 14.6115 24.8883 13.8406L26.7661 12.1505C27.2171 11.7446 27.8024 11.52 28.4092 11.52H33.3333C34.0406 11.52 34.7189 11.2166 35.219 10.6765C35.719 10.1364 36 9.40382 36 8.64V2.88C36 2.11618 35.719 1.38364 35.219 0.843532C34.7189 0.303428 34.0406 0 33.3333 0H22.6667ZM10.6667 7.2C9.25218 7.2 7.89562 7.80686 6.89543 8.88706C5.89524 9.96727 5.33333 11.4324 5.33333 12.96C5.33333 14.4876 5.89524 15.9527 6.89543 17.0329C7.89562 18.1131 9.25218 18.72 10.6667 18.72C12.0812 18.72 13.4377 18.1131 14.4379 17.0329C15.4381 15.9527 16 14.4876 16 12.96C16 11.4324 15.4381 9.96727 14.4379 8.88706C13.4377 7.80686 12.0812 7.2 10.6667 7.2ZM17.3333 21.6H4C2.93913 21.6 1.92172 22.0551 1.17157 22.8653C0.421427 23.6755 0 24.7743 0 25.92C0 29.1341 1.224 31.7088 3.232 33.4512C5.208 35.1648 7.85867 36 10.6667 36C13.4747 36 16.1253 35.1648 18.1013 33.4512C20.1067 31.7088 21.3333 29.1341 21.3333 25.92C21.3333 24.7743 20.9119 23.6755 20.1618 22.8653C19.4116 22.0551 18.3942 21.6 17.3333 21.6Z" fill="#E9E9E9"/>
</g>
</svg>
