<svg width="36" height="36" viewBox="0 0 36 36" fill="none" xmlns="http://www.w3.org/2000/svg">
<g id="Icones">
<path id="Vector" fill-rule="evenodd" clip-rule="evenodd" d="M13.6655 2.16045C13.3824 2.41661 13.0849 2.6564 12.7745 2.87865C12.2381 3.23865 11.635 3.48705 11.0014 3.61305C10.726 3.66705 10.438 3.69045 9.8638 3.73545C8.42196 3.85065 7.70014 3.90825 7.09893 4.12065C6.41149 4.36336 5.78711 4.7569 5.27161 5.27238C4.75611 5.78787 4.36257 6.41223 4.11985 7.09965C3.90745 7.70085 3.84985 8.42265 3.73464 9.86445C3.71501 10.2456 3.67414 10.6254 3.61224 11.0021C3.48624 11.6357 3.23783 12.2387 2.87782 12.7751C2.72122 13.0091 2.53401 13.2287 2.1596 13.6661C1.22178 14.7677 0.751969 15.3185 0.476562 15.8945C-0.158854 17.2265 -0.158854 18.7745 0.476562 20.1065C0.751969 20.6825 1.22178 21.2333 2.1596 22.3349C2.53401 22.7723 2.72122 22.9918 2.87782 23.2259C3.23783 23.7623 3.48624 24.3653 3.61224 24.9989C3.66624 25.2743 3.68964 25.5623 3.73464 26.1365C3.84985 27.5783 3.90745 28.3001 4.11985 28.9013C4.36257 29.5887 4.75611 30.213 5.27161 30.7285C5.78711 31.244 6.41149 31.6375 7.09893 31.8803C7.70014 32.0927 8.42196 32.1502 9.8638 32.2654C10.438 32.3104 10.726 32.3339 11.0014 32.3879C11.635 32.5139 12.2381 32.764 12.7745 33.1222C13.0085 33.2788 13.2281 33.466 13.6655 33.8405C14.7671 34.7782 15.3179 35.2481 15.8939 35.5235C17.226 36.1589 18.774 36.1589 20.1061 35.5235C20.6821 35.2481 21.2329 34.7782 22.3345 33.8405C22.7719 33.466 22.9915 33.2788 23.2255 33.1222C23.7619 32.7622 24.365 32.5139 24.9986 32.3879C25.274 32.3339 25.562 32.3104 26.1362 32.2654C27.578 32.1502 28.2999 32.0927 28.9011 31.8803C29.5885 31.6375 30.2129 31.244 30.7284 30.7285C31.2439 30.213 31.6374 29.5887 31.8801 28.9013C32.0926 28.3001 32.1502 27.5783 32.2654 26.1365C32.3104 25.5623 32.3338 25.2743 32.3878 24.9989C32.5138 24.3653 32.764 23.7623 33.1222 23.2259C33.2788 22.9918 33.466 22.7723 33.8404 22.3349C34.7782 21.2333 35.248 20.6825 35.5234 20.1065C36.1589 18.7745 36.1589 17.2265 35.5234 15.8945C35.248 15.3185 34.7782 14.7677 33.8404 13.6661C33.5842 13.383 33.3444 13.0855 33.1222 12.7751C32.7625 12.2384 32.5129 11.6358 32.3878 11.0021C32.3259 10.6254 32.285 10.2456 32.2654 9.86445C32.1502 8.42265 32.0926 7.70085 31.8801 7.09965C31.6374 6.41223 31.2439 5.78787 30.7284 5.27238C30.2129 4.7569 29.5885 4.36336 28.9011 4.12065C28.2999 3.90825 27.578 3.85065 26.1362 3.73545C25.755 3.71582 25.3752 3.67496 24.9986 3.61305C24.3648 3.48793 23.7622 3.23831 23.2255 2.87865C22.9155 2.65593 22.618 2.41616 22.3345 2.16045C21.2329 1.22265 20.6821 0.752854 20.1061 0.477454C19.4485 0.16314 18.7289 0 18 0C17.2711 0 16.5515 0.16314 15.8939 0.477454C15.3179 0.752854 14.7671 1.22265 13.6655 2.16045ZM24.896 11.1065C25.1701 11.3811 25.3241 11.7534 25.3241 12.1415C25.3241 12.5295 25.1701 12.9018 24.896 13.1765L13.1759 24.8981C13.0423 25.0442 12.8806 25.1618 12.7003 25.2437C12.5201 25.3256 12.3251 25.3701 12.1272 25.3746C11.9293 25.379 11.7325 25.3433 11.5487 25.2696C11.365 25.196 11.1981 25.0858 11.0581 24.9458C10.9181 24.8058 10.8079 24.6389 10.7342 24.4552C10.6605 24.2714 10.6248 24.0746 10.6293 23.8767C10.6338 23.6788 10.6783 23.4838 10.7602 23.3036C10.8421 23.1234 10.9597 22.9616 11.1058 22.8281L22.8241 11.1083C23.0988 10.8341 23.4711 10.6802 23.8591 10.6802C24.2472 10.6802 24.6195 10.8341 24.8942 11.1083L24.896 11.1065ZM24.8366 22.8839C24.8366 23.4018 24.6308 23.8986 24.2645 24.2648C23.8983 24.6311 23.4015 24.8369 22.8835 24.8369C22.3655 24.8369 21.8688 24.6311 21.5025 24.2648C21.1362 23.8986 20.9305 23.4018 20.9305 22.8839C20.9305 22.3659 21.1362 21.8691 21.5025 21.5029C21.8688 21.1366 22.3655 20.9309 22.8835 20.9309C23.4015 20.9309 23.8983 21.1366 24.2645 21.5029C24.6308 21.8691 24.8366 22.3659 24.8366 22.8839ZM13.1183 15.0719C13.3748 15.0719 13.6287 15.0213 13.8657 14.9232C14.1026 14.825 14.3179 14.6812 14.4993 14.4998C14.6806 14.3185 14.8245 14.1032 14.9227 13.8662C15.0208 13.6293 15.0713 13.3753 15.0713 13.1189C15.0713 12.8624 15.0208 12.6084 14.9227 12.3715C14.8245 12.1345 14.6806 11.9192 14.4993 11.7379C14.3179 11.5565 14.1026 11.4127 13.8657 11.3145C13.6287 11.2164 13.3748 11.1659 13.1183 11.1659C12.6003 11.1659 12.1035 11.3716 11.7373 11.7379C11.371 12.1041 11.1652 12.6009 11.1652 13.1189C11.1652 13.6368 11.371 14.1336 11.7373 14.4998C12.1035 14.8661 12.6003 15.0719 13.1183 15.0719Z" fill="#E9E9E9"/>
</g>
</svg>
